<svg xmlns="http://www.w3.org/2000/svg" viewBox="0 0 100 100">
  <rect width="100" height="100" rx="20" fill="#2a6a9c"/>
  <ellipse cx="38" cy="48" rx="16" ry="12" fill="#e8945a"/>
  <path d="M52 48 l11 -7 v14 z" fill="#c46e34"/>
  <circle cx="33" cy="45" r="1.8" fill="#2a1408"/>
  <path d="M31 51 q4 3 8 0" stroke="#2a1408" stroke-width="1.6" fill="none" stroke-linecap="round"/>
  <ellipse cx="62" cy="70" rx="15" ry="11" fill="#7cc39a"/>
  <path d="M75 70 l10 -6 v12 z" fill="#569c74"/>
  <circle cx="58" cy="67" r="1.8" fill="#0a2a1a"/>
  <path d="M55 73 q4 3 8 0" stroke="#0a2a1a" stroke-width="1.6" fill="none" stroke-linecap="round"/>
  <path d="M20 30 h60 M25 22 v16 M35 22 v16 M45 22 v16 M55 22 v16 M65 22 v16 M75 22 v16" stroke="#ffe9a8" stroke-width="1.6" opacity=".8"/>
  <text x="50" y="94" font-size="12" text-anchor="middle" fill="#d8ecf8" font-family="sans-serif">一網滿滿</text>
</svg>
